<svg xmlns="http://www.w3.org/2000/svg" version="1.1" xmlns:xlink="http://www.w3.org/1999/xlink" xmlns:svgjs="http://svgjs.dev/svgjs" width="1000" height="1000"><style>
    #light-icon {
      display: inline;
    }
    #dark-icon {
      display: none;
    }

    @media (prefers-color-scheme: dark) {
      #light-icon {
        display: none;
      }
      #dark-icon {
        display: inline;
      }
    }
  </style><g id="light-icon"><svg xmlns="http://www.w3.org/2000/svg" version="1.1" xmlns:xlink="http://www.w3.org/1999/xlink" xmlns:svgjs="http://svgjs.dev/svgjs" width="1000" height="1000"><g><g transform="matrix(19.546520719311964,0,0,19.546520719311964,0,178.6551993745113)"><svg xmlns="http://www.w3.org/2000/svg" version="1.1" xmlns:xlink="http://www.w3.org/1999/xlink" xmlns:svgjs="http://svgjs.dev/svgjs" width="51.16" height="32.88"><svg id="Layer_1" data-name="Layer 1" xmlns="http://www.w3.org/2000/svg" viewBox="0 0 51.16 32.88"><defs><style>.cls-1{fill:#e52421;}</style></defs><rect class="cls-1" x="14.1" y="5.85" width="2.62" height="20.82"></rect><rect class="cls-1" x="32.85" y="5.85" width="2.62" height="13.57"></rect><rect class="cls-1" x="39.49" y="12.75" width="2.62" height="13.92"></rect><rect class="cls-1" x="7.41" y="14.54" width="2.62" height="12.5"></rect><rect class="cls-1" x="7.32" y="8.26" width="2.92" height="2.76"></rect><rect class="cls-1" x="19.13" y="23.91" width="2.92" height="2.76"></rect><polygon class="cls-1" points="30.57 5.85 26.96 5.85 24.34 5.85 24.34 8.25 24.34 26.66 26.96 26.66 26.96 8.25 30.57 8.25 30.57 5.85"></polygon><rect class="cls-1" x="32.7" y="23.91" width="2.92" height="2.76"></rect><rect class="cls-1" x="39.01" y="5.85" width="2.92" height="2.76"></rect></svg></svg></g></g></svg></g><g id="dark-icon"><svg xmlns="http://www.w3.org/2000/svg" version="1.1" xmlns:xlink="http://www.w3.org/1999/xlink" xmlns:svgjs="http://svgjs.dev/svgjs" width="1000" height="1000"><g clip-path="url(#SvgjsClipPath1010)"><rect width="1000" height="1000" fill="#ffffff"></rect><g transform="matrix(13.682564503518375,0,0,13.682564503518375,150,275.0586395621579)"><svg xmlns="http://www.w3.org/2000/svg" version="1.1" xmlns:xlink="http://www.w3.org/1999/xlink" xmlns:svgjs="http://svgjs.dev/svgjs" width="51.16" height="32.88"><svg id="Layer_1" data-name="Layer 1" xmlns="http://www.w3.org/2000/svg" viewBox="0 0 51.16 32.88"><defs><style>.cls-1{fill:#e52421;}</style><clipPath id="SvgjsClipPath1010"><rect width="1000" height="1000" x="0" y="0" rx="300" ry="300"></rect></clipPath></defs><rect class="cls-1" x="14.1" y="5.85" width="2.62" height="20.82"></rect><rect class="cls-1" x="32.85" y="5.85" width="2.62" height="13.57"></rect><rect class="cls-1" x="39.49" y="12.75" width="2.62" height="13.92"></rect><rect class="cls-1" x="7.41" y="14.54" width="2.62" height="12.5"></rect><rect class="cls-1" x="7.32" y="8.26" width="2.92" height="2.76"></rect><rect class="cls-1" x="19.13" y="23.91" width="2.92" height="2.76"></rect><polygon class="cls-1" points="30.57 5.85 26.96 5.85 24.34 5.85 24.34 8.25 24.34 26.66 26.96 26.66 26.96 8.25 30.57 8.25 30.57 5.85"></polygon><rect class="cls-1" x="32.7" y="23.91" width="2.92" height="2.76"></rect><rect class="cls-1" x="39.01" y="5.85" width="2.92" height="2.76"></rect></svg></svg></g></g></svg></g></svg>