<svg id="Layer_1" data-name="Layer 1" xmlns="http://www.w3.org/2000/svg" viewBox="0 0 117.02 22.39"><defs><style>.cls-1{fill:#e52421;}.cls-2{fill:#fff;}</style></defs><rect class="cls-1" x="6.78" y="0.87" width="2.62" height="20.82"/><rect class="cls-1" x="25.53" y="0.87" width="2.62" height="13.57"/><rect class="cls-1" x="32.17" y="7.76" width="2.62" height="13.92"/><rect class="cls-1" x="0.08" y="9.55" width="2.62" height="12.5"/><rect class="cls-1" y="3.27" width="2.92" height="2.76"/><rect class="cls-1" x="11.81" y="18.93" width="2.92" height="2.76"/><polygon class="cls-1" points="23.25 0.87 19.64 0.87 17.02 0.87 17.02 3.27 17.02 21.68 19.64 21.68 19.64 3.27 23.25 3.27 23.25 0.87"/><rect class="cls-1" x="25.38" y="18.93" width="2.92" height="2.76"/><rect class="cls-1" x="31.69" y="0.87" width="2.92" height="2.76"/><path class="cls-2" d="M46.51,17.18v-.4a2.56,2.56,0,0,0,.6-.17.73.73,0,0,0,.3-.28,1,1,0,0,0,.09-.47,2.88,2.88,0,0,0-.06-.59c0-.21-.11-.45-.19-.72L47,13.5H43.17l-.28.8a9.46,9.46,0,0,0-.26.91,2.1,2.1,0,0,0-.07.56,1,1,0,0,0,.24.71,1.44,1.44,0,0,0,.76.3v.4H40.12v-.4a1.23,1.23,0,0,0,.79-.53A5.58,5.58,0,0,0,41.56,15l3.38-9h1.29L49,15c.09.33.2.65.32,1a1.71,1.71,0,0,0,.37.52,1.4,1.4,0,0,0,.58.27v.4Zm-3.12-4.39h3.42L45.26,7.56Z"/><path class="cls-1" d="M53.58,16.63a5.07,5.07,0,0,1-.26,1.77,2.64,2.64,0,0,1-.84,1.16,5,5,0,0,1-1.67.83l-.27-.71a3,3,0,0,0,1-.56,1.41,1.41,0,0,0,.42-.7,4.38,4.38,0,0,0,.12-1.14V8.11a4.44,4.44,0,0,0-.07-1,.79.79,0,0,0-.22-.4,1.92,1.92,0,0,0-.66-.27V6.11h3.43V6.5a2.47,2.47,0,0,0-.52.18.88.88,0,0,0-.25.22,1.12,1.12,0,0,0-.14.4,5.91,5.91,0,0,0,0,.84Z"/><path class="cls-2" d="M57.09,14.66a3.31,3.31,0,0,0,.43,1.13,1.83,1.83,0,0,0,.71.61,2.9,2.9,0,0,0,1.13.2,2,2,0,0,0,1.46-.5,2,2,0,0,0,.51-1.44,2.27,2.27,0,0,0-.21-1,2.46,2.46,0,0,0-.69-.78A9.15,9.15,0,0,0,59,12a8,8,0,0,1-1.51-.92,3.12,3.12,0,0,1-.83-1A2.5,2.5,0,0,1,56.37,9a2.81,2.81,0,0,1,.47-1.57,2.7,2.7,0,0,1,1.25-1A4.67,4.67,0,0,1,60,6,12.09,12.09,0,0,1,61.18,6a10.33,10.33,0,0,1,1.47.29V8.52h-.8a3.51,3.51,0,0,0-.47-1.11,1.66,1.66,0,0,0-.67-.56,2.74,2.74,0,0,0-1-.15,2.17,2.17,0,0,0-.94.19,1.46,1.46,0,0,0-.66.59,1.8,1.8,0,0,0-.25.93,2.06,2.06,0,0,0,.21,1,2.3,2.3,0,0,0,.65.74,7.94,7.94,0,0,0,1.29.76,9.06,9.06,0,0,1,1.61,1,3.27,3.27,0,0,1,.9,1,2.67,2.67,0,0,1,.32,1.33,3.54,3.54,0,0,1-.31,1.43,2.48,2.48,0,0,1-.75.95,2.8,2.8,0,0,1-1.13.53,5.93,5.93,0,0,1-1.45.17,11.74,11.74,0,0,1-2.94-.43v-2.2Z"/><path class="cls-2" d="M75.44,17l-.63.17-.6-.66a4,4,0,0,1-1.1.49,5.87,5.87,0,0,1-1.32.15A3.61,3.61,0,0,1,68.7,15.7a7,7,0,0,1-1-4.18,7.49,7.49,0,0,1,.57-3,4.28,4.28,0,0,1,4.13-2.71,11.28,11.28,0,0,1,3,.39V8.4h-.84A3.72,3.72,0,0,0,74,7.28a1.63,1.63,0,0,0-.72-.58,2.57,2.57,0,0,0-1.06-.17,2.31,2.31,0,0,0-1.55.56,3.58,3.58,0,0,0-1,1.68,8,8,0,0,0-.37,2.67,10,10,0,0,0,.31,2.72,3.58,3.58,0,0,0,.92,1.67,2.16,2.16,0,0,0,1.53.57A2.14,2.14,0,0,0,73.49,16,1.72,1.72,0,0,0,74,14.7v-.49a5.41,5.41,0,0,0-.08-1.06,1.06,1.06,0,0,0-.27-.5,1.69,1.69,0,0,0-.64-.29V12h3.28v.39a1.57,1.57,0,0,0-.45.22,1.06,1.06,0,0,0-.21.31,1.29,1.29,0,0,0-.11.46v.78Z"/><path class="cls-2" d="M79.82,10.62h.11a6.67,6.67,0,0,1,.84-.84,3,3,0,0,1,.83-.47,2.87,2.87,0,0,1,1-.18,7.86,7.86,0,0,1,.83,0v1.87h-.92a1.89,1.89,0,0,0-.41-.64.86.86,0,0,0-.6-.2,1,1,0,0,0-.58.18,2,2,0,0,0-.56.49,1.89,1.89,0,0,0-.36.61,1.69,1.69,0,0,0-.11.67V15A3.5,3.5,0,0,0,80,16a.73.73,0,0,0,.3.41,1.88,1.88,0,0,0,.62.2V17H77.64v-.4a2.35,2.35,0,0,0,.44-.17.66.66,0,0,0,.23-.21.88.88,0,0,0,.15-.39,5.78,5.78,0,0,0,.05-.83V10.62a1.26,1.26,0,0,0-.11-.51.71.71,0,0,0-.29-.28,2.19,2.19,0,0,0-.57-.16V9.25l1.9-.08h.49Z"/><path class="cls-2" d="M87.76,17.13a3.25,3.25,0,0,1-2.51-1,4.28,4.28,0,0,1-.89-2.94,5,5,0,0,1,.47-2.26,3.12,3.12,0,0,1,1.26-1.38,3.73,3.73,0,0,1,1.85-.45,3.32,3.32,0,0,1,2.63,1,4.27,4.27,0,0,1,.9,2.9A5.22,5.22,0,0,1,91,15.29a2.91,2.91,0,0,1-1.26,1.38A3.84,3.84,0,0,1,87.76,17.13ZM85.83,13a5.05,5.05,0,0,0,.53,2.56,1.65,1.65,0,0,0,1.54.88,1.54,1.54,0,0,0,.93-.27,1.94,1.94,0,0,0,.62-.71,3.39,3.39,0,0,0,.35-1,7.29,7.29,0,0,0,.1-1.23,6.31,6.31,0,0,0-.26-2,2.48,2.48,0,0,0-.72-1.16,1.75,1.75,0,0,0-2.55.47A4.69,4.69,0,0,0,85.86,13Z"/><path class="cls-2" d="M92.89,9.25h2.3v4.13a11.28,11.28,0,0,0,.09,1.42,2.35,2.35,0,0,0,.22.74,1.13,1.13,0,0,0,.42.42,1.36,1.36,0,0,0,.74.18,1.53,1.53,0,0,0,.59-.13,2.66,2.66,0,0,0,.63-.42,2.12,2.12,0,0,0,.5-.61,1.69,1.69,0,0,0,.15-.7V10.57a1.24,1.24,0,0,0-.09-.38.63.63,0,0,0-.35-.39,2.27,2.27,0,0,0-.46-.16V9.25H100v6.44a1.15,1.15,0,0,0,.11.45.57.57,0,0,0,.25.26,2.1,2.1,0,0,0,.6.19V17l-1.86.08h-.49l0-1.33h-.12a5.29,5.29,0,0,1-1.29,1.07,2.42,2.42,0,0,1-1.23.34,2.24,2.24,0,0,1-1.21-.29,1.76,1.76,0,0,1-.72-.83,4.56,4.56,0,0,1-.23-1.68V11.26a7.25,7.25,0,0,0,0-.93.78.78,0,0,0-.21-.4,1.53,1.53,0,0,0-.65-.29Z"/><path class="cls-2" d="M104.48,16.76v1.68a5.08,5.08,0,0,0,0,.78,1.45,1.45,0,0,0,.12.42.88.88,0,0,0,.27.24,2.25,2.25,0,0,0,.57.19v.39H102.1v-.39l.47-.17a.68.68,0,0,0,.28-.25,1.22,1.22,0,0,0,.13-.45V10.68a2.7,2.7,0,0,0-.06-.41.72.72,0,0,0-.15-.27.74.74,0,0,0-.25-.17,2.38,2.38,0,0,0-.52-.15V9.25l1.9-.08h.5l-.1,1.33h.11a9.8,9.8,0,0,1,.84-.75,2.9,2.9,0,0,1,.6-.38,2.54,2.54,0,0,1,.6-.22,3.17,3.17,0,0,1,.61-.07,2.38,2.38,0,0,1,2.06,1,5.1,5.1,0,0,1,.72,2.93,5.38,5.38,0,0,1-.35,2.28,2.8,2.8,0,0,1-1.17,1.37,3.56,3.56,0,0,1-1.85.46,5,5,0,0,1-1.09-.1A4.67,4.67,0,0,1,104.48,16.76Zm0-2.68a6,6,0,0,0,.09,1.2,1.5,1.5,0,0,0,.34.69,1.64,1.64,0,0,0,.59.39,2.72,2.72,0,0,0,.89.14,1.62,1.62,0,0,0,1.47-.84,4.66,4.66,0,0,0,.5-2.41c0-2.11-.62-3.17-1.86-3.17a1.92,1.92,0,0,0-.78.14,2.13,2.13,0,0,0-.66.46,1.93,1.93,0,0,0-.45.61,1.55,1.55,0,0,0-.13.63Z"/><path class="cls-2" d="M116.92,11h-.74a2.37,2.37,0,0,0-.42-.76,1.29,1.29,0,0,0-.55-.39,2,2,0,0,0-.76-.12,1.64,1.64,0,0,0-1,.3,1,1,0,0,0-.39.84,1.13,1.13,0,0,0,.16.62,1.68,1.68,0,0,0,.47.45,9.4,9.4,0,0,0,1.15.56,9.05,9.05,0,0,1,1.28.65,2.34,2.34,0,0,1,.7.7,1.78,1.78,0,0,1,.23.93,2.52,2.52,0,0,1-.22,1.08,1.93,1.93,0,0,1-.62.71,2.78,2.78,0,0,1-.94.4,6.11,6.11,0,0,1-1.2.12,9.77,9.77,0,0,1-1.32-.1c-.42-.07-.84-.15-1.25-.26V15.08h.79a2.09,2.09,0,0,0,.65,1.07,1.89,1.89,0,0,0,1.19.35,2.78,2.78,0,0,0,.57-.07,1.94,1.94,0,0,0,.5-.2,1.07,1.07,0,0,0,.34-.39,1.25,1.25,0,0,0,.14-.61,1.37,1.37,0,0,0-.16-.66,1.66,1.66,0,0,0-.51-.48,11.11,11.11,0,0,0-1.2-.59,7.22,7.22,0,0,1-1.18-.59,2.23,2.23,0,0,1-.71-.69,1.86,1.86,0,0,1-.26-1,2,2,0,0,1,.37-1.15,2.22,2.22,0,0,1,1-.75,4.59,4.59,0,0,1,1.6-.26,8.77,8.77,0,0,1,1,.06,12.07,12.07,0,0,1,1.25.2Z"/></svg>