<svg id="Layer_1" data-name="Layer 1" xmlns="http://www.w3.org/2000/svg" viewBox="0 0 64.37 11.67"><defs><style>.cls-1{fill:#e52421;}.cls-2{fill:#fff;}</style></defs><rect class="cls-1" x="3.69" width="1.44" height="11.47"/><rect class="cls-1" x="14.02" width="1.44" height="7.48"/><rect class="cls-1" x="17.68" y="3.8" width="1.44" height="7.67"/><rect class="cls-1" y="4.78" width="1.44" height="6.88"/><rect class="cls-1" x="-0.05" y="1.33" width="1.61" height="1.52"/><rect class="cls-1" x="6.46" y="9.95" width="1.61" height="1.52"/><polygon class="cls-1" points="12.76 0 10.78 0 9.33 0 9.33 1.32 9.33 11.47 10.78 11.47 10.78 1.32 12.76 1.32 12.76 0"/><rect class="cls-1" x="13.93" y="9.95" width="1.61" height="1.52"/><rect class="cls-1" x="17.41" width="1.61" height="1.52"/><path class="cls-2" d="M25.57,9V8.77a1.33,1.33,0,0,0,.34-.1.39.39,0,0,0,.16-.15.47.47,0,0,0,.05-.26,1.84,1.84,0,0,0,0-.33c0-.11-.06-.24-.11-.39L25.82,7H23.74l-.15.44a4.13,4.13,0,0,0-.15.5,1.1,1.1,0,0,0,0,.31.51.51,0,0,0,.14.39.79.79,0,0,0,.41.17V9H22.06V8.77a.71.71,0,0,0,.43-.29,3,3,0,0,0,.36-.72l1.86-4.95h.71l1.52,5a4.72,4.72,0,0,0,.18.53,1,1,0,0,0,.2.29,1,1,0,0,0,.32.15V9ZM23.86,6.57h1.88l-.85-2.88Z"/><path class="cls-1" d="M29.47,8.68a2.91,2.91,0,0,1-.14,1,1.46,1.46,0,0,1-.46.64,2.94,2.94,0,0,1-.92.46l-.15-.39a2.05,2.05,0,0,0,.56-.31.86.86,0,0,0,.23-.39A2.21,2.21,0,0,0,28.65,9V4a1.93,1.93,0,0,0,0-.53.4.4,0,0,0-.12-.22,1.14,1.14,0,0,0-.36-.15v-.2H30V3.1l-.29.1a.53.53,0,0,0-.14.12.62.62,0,0,0-.07.23,3.44,3.44,0,0,0,0,.46Z"/><path class="cls-2" d="M31.4,7.6a2,2,0,0,0,.24.62,1,1,0,0,0,.4.34,1.59,1.59,0,0,0,.62.11,1.08,1.08,0,0,0,.8-.28,1.06,1.06,0,0,0,.28-.79A1.13,1.13,0,0,0,33.62,7a1.39,1.39,0,0,0-.37-.43,6.48,6.48,0,0,0-.81-.46,4.16,4.16,0,0,1-.83-.5,1.7,1.7,0,0,1-.46-.54A1.32,1.32,0,0,1,31,4.45a1.55,1.55,0,0,1,.26-.86A1.38,1.38,0,0,1,32,3a2.6,2.6,0,0,1,1-.21c.23,0,.45,0,.67,0a7.25,7.25,0,0,1,.81.16V4.22H34a1.85,1.85,0,0,0-.26-.61.8.8,0,0,0-.37-.31,1.65,1.65,0,0,0-.54-.09,1.4,1.4,0,0,0-.53.11.86.86,0,0,0-.36.32,1,1,0,0,0-.13.52A1.14,1.14,0,0,0,32,4.7a1.16,1.16,0,0,0,.36.4,3.9,3.9,0,0,0,.71.42,5.42,5.42,0,0,1,.89.54,1.76,1.76,0,0,1,.49.56,1.52,1.52,0,0,1,.18.73,2,2,0,0,1-.17.79,1.38,1.38,0,0,1-.41.52,1.83,1.83,0,0,1-.63.3,3.57,3.57,0,0,1-.8.09A6.41,6.41,0,0,1,31,8.81V7.6Z"/><path class="cls-2" d="M41.52,8.87,41.17,9l-.33-.36a1.94,1.94,0,0,1-.61.26A3,3,0,0,1,39.5,9a2,2,0,0,1-1.7-.78,3.8,3.8,0,0,1-.57-2.3,4.16,4.16,0,0,1,.31-1.67,2.35,2.35,0,0,1,2.28-1.49,6.12,6.12,0,0,1,1.65.21V4.15H41a2.29,2.29,0,0,0-.27-.62.94.94,0,0,0-.39-.32,1.49,1.49,0,0,0-.59-.09,1.23,1.23,0,0,0-.85.31,2,2,0,0,0-.57.92,4.38,4.38,0,0,0-.2,1.48,5.37,5.37,0,0,0,.17,1.49,1.91,1.91,0,0,0,.51.92,1.18,1.18,0,0,0,.84.32,1.14,1.14,0,0,0,.78-.23.93.93,0,0,0,.25-.71V7.35a2.83,2.83,0,0,0,0-.58.51.51,0,0,0-.15-.28.86.86,0,0,0-.35-.16V6.12H42v.21a.8.8,0,0,0-.24.13.43.43,0,0,0-.12.17,1,1,0,0,0-.06.25v2Z"/><path class="cls-2" d="M43.93,5.37H44a4,4,0,0,1,.46-.46,1.61,1.61,0,0,1,.46-.26,1.49,1.49,0,0,1,.55-.1,3.44,3.44,0,0,1,.46,0v1h-.5a1.18,1.18,0,0,0-.23-.35.44.44,0,0,0-.33-.11.59.59,0,0,0-.32.09,1.38,1.38,0,0,0-.51.61,1.19,1.19,0,0,0-.06.37V7.79a2.12,2.12,0,0,0,.05.56.41.41,0,0,0,.17.22.8.8,0,0,0,.34.11v.23h-1.8V8.68A1.17,1.17,0,0,0,43,8.59a.69.69,0,0,0,.13-.11.58.58,0,0,0,.08-.22,3.55,3.55,0,0,0,0-.46V5.37a.71.71,0,0,0-.06-.28A.46.46,0,0,0,43,4.94a1.17,1.17,0,0,0-.32-.09V4.62l1,0H44Z"/><path class="cls-2" d="M48.3,9a1.77,1.77,0,0,1-1.38-.55,2.36,2.36,0,0,1-.49-1.62,2.79,2.79,0,0,1,.26-1.24,1.7,1.7,0,0,1,.69-.76,2.05,2.05,0,0,1,1-.25,1.84,1.84,0,0,1,1.45.56,2.3,2.3,0,0,1,.49,1.6A2.85,2.85,0,0,1,50.1,8a1.66,1.66,0,0,1-.7.76A2.1,2.1,0,0,1,48.3,9ZM47.24,6.7a2.74,2.74,0,0,0,.29,1.41.94.94,0,0,0,.85.49.92.92,0,0,0,.51-.15,1.06,1.06,0,0,0,.34-.39,1.94,1.94,0,0,0,.2-.57,3.89,3.89,0,0,0,0-.68,3.33,3.33,0,0,0-.14-1.09,1.39,1.39,0,0,0-.4-.64.9.9,0,0,0-.57-.2.94.94,0,0,0-.83.46,2.58,2.58,0,0,0-.29,1.36Z"/><path class="cls-2" d="M51.13,4.62H52.4V6.89a5.16,5.16,0,0,0,.05.79,1,1,0,0,0,.12.41.63.63,0,0,0,.23.23.7.7,0,0,0,.4.09.72.72,0,0,0,.33-.07,1.63,1.63,0,0,0,.35-.23,1.09,1.09,0,0,0,.27-.33.89.89,0,0,0,.09-.39v-2a1.6,1.6,0,0,0-.05-.21A.54.54,0,0,0,54.12,5L54,4.92a1.29,1.29,0,0,0-.26-.08V4.62H55V8.17a.5.5,0,0,0,.06.24.4.4,0,0,0,.14.15,1.15,1.15,0,0,0,.33.1V8.9l-1,0h-.28l0-.73h-.07a2.9,2.9,0,0,1-.71.59,1.32,1.32,0,0,1-.67.18,1.19,1.19,0,0,1-.67-.16,1,1,0,0,1-.4-.46,2.6,2.6,0,0,1-.13-.92V5.73a3,3,0,0,0,0-.52A.57.57,0,0,0,51.5,5a.82.82,0,0,0-.36-.15Z"/><path class="cls-2" d="M57.51,8.76v.92a3.09,3.09,0,0,0,0,.43.88.88,0,0,0,.07.23.5.5,0,0,0,.15.14,1.6,1.6,0,0,0,.31.1v.21H56.2v-.21l.26-.09a.44.44,0,0,0,.16-.14.72.72,0,0,0,.07-.25V5.41a1.57,1.57,0,0,0,0-.23A.37.37,0,0,0,56.57,5a.38.38,0,0,0-.13-.09,1.61,1.61,0,0,0-.29-.09V4.62l1.05,0h.27l-.06.72h.07a6.1,6.1,0,0,1,.46-.41,1.45,1.45,0,0,1,1-.36,1.28,1.28,0,0,1,1.13.55,2.86,2.86,0,0,1,.4,1.62A3.15,3.15,0,0,1,60.28,8a1.61,1.61,0,0,1-.65.76,2,2,0,0,1-1,.25,4,4,0,0,1-.6-.05A4.13,4.13,0,0,1,57.51,8.76Zm0-1.48a3.67,3.67,0,0,0,.05.66.91.91,0,0,0,.19.38.83.83,0,0,0,.33.22,1.32,1.32,0,0,0,.49.07.9.9,0,0,0,.81-.46,2.55,2.55,0,0,0,.27-1.33c0-1.16-.34-1.75-1-1.75a1.26,1.26,0,0,0-.43.08,1,1,0,0,0-.36.26.9.9,0,0,0-.25.33.85.85,0,0,0-.08.35Z"/><path class="cls-2" d="M64.37,5.59H64a1.27,1.27,0,0,0-.23-.41.71.71,0,0,0-.3-.22A1.23,1.23,0,0,0,63,4.89a.91.91,0,0,0-.57.17.58.58,0,0,0-.22.46.67.67,0,0,0,.09.34.88.88,0,0,0,.26.25,5.38,5.38,0,0,0,.64.31,4.63,4.63,0,0,1,.7.36,1.32,1.32,0,0,1,.39.39.9.9,0,0,1,.12.51,1.23,1.23,0,0,1-.12.59,1,1,0,0,1-.34.39,1.41,1.41,0,0,1-.52.22,3,3,0,0,1-.66.07,4.49,4.49,0,0,1-.73-.06,5.63,5.63,0,0,1-.69-.14V7.83h.44a1.13,1.13,0,0,0,.36.59,1,1,0,0,0,.65.19,1.17,1.17,0,0,0,.32,0,.7.7,0,0,0,.27-.11.48.48,0,0,0,.19-.21.76.76,0,0,0,.08-.33.78.78,0,0,0-.09-.37.9.9,0,0,0-.28-.27A5,5,0,0,0,62.64,7,5,5,0,0,1,62,6.64a1.29,1.29,0,0,1-.38-.39.85.85,0,0,1-.14-.52,1,1,0,0,1,.2-.63,1.2,1.2,0,0,1,.57-.42,2.62,2.62,0,0,1,.88-.14,5.44,5.44,0,0,1,.57,0l.69.11Z"/></svg>